<svg width="18" height="12" viewBox="0 0 18 12" fill="none" xmlns="http://www.w3.org/2000/svg">
<path fill-rule="evenodd" clip-rule="evenodd" d="M17.6667 1.66666C17.6667 1.11438 17.219 0.666664 16.6667 0.666664H15.6667C15.1145 0.666664 14.6667 1.11438 14.6667 1.66666V10.3333C14.6667 10.8856 15.1145 11.3333 15.6667 11.3333H16.6667C17.219 11.3333 17.6667 10.8856 17.6667 10.3333V1.66666ZM11.0001 3H12.0001C12.5524 3 13.0001 3.44771 13.0001 4V10.3333C13.0001 10.8856 12.5524 11.3333 12.0001 11.3333H11.0001C10.4478 11.3333 10.0001 10.8856 10.0001 10.3333V4C10.0001 3.44771 10.4478 3 11.0001 3ZM7.33341 5.33333H6.33341C5.78113 5.33333 5.33341 5.78105 5.33341 6.33333V10.3333C5.33341 10.8856 5.78113 11.3333 6.33341 11.3333H7.33341C7.8857 11.3333 8.33341 10.8856 8.33341 10.3333V6.33333C8.33341 5.78105 7.8857 5.33333 7.33341 5.33333ZM3.66675 8.33333C3.66675 7.78105 3.21903 7.33333 2.66675 7.33333H1.66675C1.11446 7.33333 0.666748 7.78105 0.666748 8.33333V10.3333C0.666748 10.8856 1.11446 11.3333 1.66675 11.3333H2.66675C3.21903 11.3333 3.66675 10.8856 3.66675 10.3333V8.33333Z" fill="white"/>
</svg>
