<svg width="175" height="30" viewBox="0 0 175 30" fill="none" xmlns="http://www.w3.org/2000/svg">
<path d="M122.379 13.4745C122.379 13.9983 121.975 14.4082 121.447 14.4082H115.925V11.7968H121.447C121.967 11.7968 122.379 12.2219 122.379 12.7305V13.4821V13.4745ZM125.656 13.7326V12.1612C125.656 10.3848 124.22 8.97287 122.448 8.97287H112.953V20.3673H115.925V18.2873C115.925 17.5434 116.528 16.9437 117.261 16.9437H122.448C124.213 16.9437 125.656 15.4937 125.656 13.725" fill="white"/>
<path d="M108.372 13.011L101.436 12.9958C100.97 12.9958 100.787 12.6086 100.787 12.1835C100.787 11.8647 100.97 11.4851 101.436 11.4851H110.037V8.96484H100.252C98.831 8.96484 97.6699 10.1263 97.6699 11.5535V13.0262C97.6699 14.4533 98.8234 15.6148 100.252 15.6148H106.745C107.127 15.6148 107.44 16.0627 107.44 16.7459C107.44 17.3532 107.127 17.8314 106.745 17.8314H97.8762V20.3745H108.013C109.449 20.3745 110.633 19.1902 110.625 17.7479V15.592C110.625 14.2711 109.648 13.0337 108.357 13.0034" fill="white"/>
<path d="M152.562 8.98062H145.206C142.395 8.98062 140.111 11.2504 140.111 14.0743L140.157 15.2738C140.157 18.0977 142.433 20.3827 145.252 20.3827H152.608V17.3993H145.29C144.259 17.3993 143.419 16.5567 143.419 15.5243L143.373 13.8238C143.373 12.7914 144.213 11.9488 145.245 11.9488H152.562V8.98821V8.98062Z" fill="white"/>
<path d="M166.793 8.98062H157.069C155.61 8.98062 154.426 10.1573 154.426 11.63V17.7257C154.426 19.1908 155.61 20.3827 157.069 20.3827H166.793V17.3993H157.932C157.703 17.3993 157.519 17.2095 157.519 16.9818V16.1619C157.519 15.9114 157.726 15.7065 157.97 15.7065H165.785V13.2773H157.909C157.695 13.2773 157.519 13.1027 157.519 12.8825V12.3815C157.519 12.1462 157.71 11.9564 157.94 11.9564H166.793V8.98062Z" fill="white"/>
<path d="M85.3334 12.503L85.3487 12.4726V12.4954L87.1285 15.8735H83.5765L85.3411 12.503H85.3334ZM77.6641 20.3827H81.2161L81.9112 19.0618C82.148 18.6139 82.6064 18.333 83.1105 18.333H87.6021C88.1063 18.333 88.5646 18.6139 88.8014 19.0618L89.4889 20.3827H93.041L87.0751 8.98062H83.6376L77.6717 20.3827H77.6641Z" fill="white"/>
<path d="M132.265 12.503L132.28 12.4726V12.4954L134.06 15.8735H130.508L132.273 12.503H132.265ZM124.596 20.3827H128.148L128.843 19.0618C129.08 18.6139 129.538 18.333 130.042 18.333H134.534C135.038 18.333 135.496 18.6139 135.733 19.0618L136.421 20.3827H139.973L134.007 8.98062H130.569L124.603 20.3827H124.596Z" fill="white"/>
<path d="M31.3125 20.3749H34.5055V11.4172L39.6464 19.464C39.9596 19.8891 40.2117 20.3749 41.2277 20.3749H45.2609V8.98046H42.0679V17.3991L37.1867 9.76236C36.9423 9.36002 36.5069 8.97287 35.827 8.97287H31.3125V20.3749Z" fill="white"/>
<path d="M54.374 12.503L54.3893 12.4726V12.4954L56.1691 15.8735H52.6171L54.3817 12.503H54.374ZM46.7047 20.3827H50.2491L50.9442 19.0618C51.181 18.6139 51.6393 18.333 52.1435 18.333H56.6351C57.1393 18.333 57.5976 18.6139 57.8344 19.0618L58.5219 20.3827H62.0663L56.1004 8.98062H52.6629L46.697 20.3827H46.7047Z" fill="white"/>
<path d="M66.282 11.8199H71.9652C72.4694 11.8199 72.8895 12.245 72.8895 12.746V13.4976C72.8895 14.0213 72.4694 14.4237 71.9652 14.4237H66.282V11.8199ZM74.0124 16.7238C75.1735 16.238 75.9985 15.0841 75.9985 13.7481V12.2146C75.9985 10.4383 74.5471 8.98836 72.7826 8.98836H63.3105V20.3828H66.2896V16.9667H69.5896C70.2923 16.9516 70.5291 17.2476 70.9264 17.779L72.8284 20.3752H76.6554L74.0201 16.7162L74.0124 16.7238Z" fill="white"/>
<path d="M171.896 15.5917C170.704 15.5917 169.734 16.5633 169.734 17.7628C169.734 18.9622 170.704 19.9338 171.896 19.9338C173.088 19.9338 174.058 18.9622 174.058 17.7628C174.058 16.5633 173.088 15.5917 171.896 15.5917ZM171.896 20.3741C170.46 20.3741 169.291 19.2051 169.291 17.7628C169.291 16.3204 170.46 15.1514 171.896 15.1514C173.332 15.1514 174.501 16.3204 174.501 17.7628C174.501 19.2051 173.332 20.3741 171.896 20.3741Z" fill="white"/>
<path d="M172.301 16.8444C172.209 16.7837 172.102 16.7609 171.873 16.7609H171.445V17.6491H171.636C171.949 17.6491 172.14 17.6491 172.27 17.5808C172.354 17.5352 172.484 17.4289 172.484 17.2012C172.484 17.1253 172.476 16.9583 172.308 16.8444H172.301ZM172.492 19.1522L171.934 18.097H171.453V19.1522H170.926V16.2979H172.087C172.217 16.2979 172.599 16.313 172.851 16.647C173.019 16.8672 173.026 17.1101 173.026 17.2088C173.026 17.2543 173.026 17.391 172.973 17.5276C172.927 17.6415 172.79 17.892 172.469 17.9907L173.103 19.1522H172.492Z" fill="white"/>
<path d="M14.2998 21.8096L2.49025 14.9699C2.26108 14.8409 2.26108 14.5069 2.49025 14.3778L14.2998 7.5381C14.529 7.40905 14.8116 7.56846 14.8116 7.83416V21.5136C14.8116 21.7793 14.529 21.9387 14.2998 21.8096ZM25.2997 7.24963L20.0442 4.14482L15.27 6.98394C15.0637 7.1054 14.8116 6.96117 14.8116 6.71825V1.14628L12.8332 0L0 7.43182V13.5352L1.50484 14.4006C1.71873 14.522 1.71873 14.8257 1.50484 14.9471L0 15.8125V21.9159L12.8255 29.3477L14.804 28.209V22.6598C14.804 22.4169 15.0713 22.2651 15.2776 22.3866L20.0442 25.2105L25.2921 22.1057V7.24963H25.2997Z" fill="white"/>
</svg>
