<svg width="16" height="12" viewBox="0 0 16 12" fill="none" xmlns="http://www.w3.org/2000/svg">
<path fill-rule="evenodd" clip-rule="evenodd" d="M8.33383 2.5739C10.5586 2.574 12.6982 3.41169 14.3106 4.91384C14.432 5.02981 14.6261 5.02835 14.7457 4.91056L15.9063 3.76273C15.9668 3.70299 16.0006 3.62206 16.0001 3.53786C15.9996 3.45366 15.9649 3.37313 15.9036 3.31409C11.6717 -0.660248 4.99533 -0.660248 0.763405 3.31409C0.702102 3.37309 0.66732 3.4536 0.666755 3.53779C0.66619 3.62199 0.699888 3.70294 0.760393 3.76273L1.92134 4.91056C2.04084 5.02853 2.23506 5.02999 2.3564 4.91384C3.96897 3.41159 6.10888 2.57389 8.33383 2.5739ZM8.33223 6.29945C9.55596 6.29938 10.736 6.75598 11.6431 7.58054C11.7658 7.69756 11.9591 7.69503 12.0787 7.57482L13.2392 6.39766C13.3004 6.33592 13.3343 6.25215 13.3334 6.16511C13.3325 6.07807 13.2969 5.99502 13.2346 5.93453C10.4723 3.35516 6.19453 3.35516 3.43224 5.93453C3.36985 5.99502 3.33425 6.07811 3.33343 6.16518C3.33261 6.25225 3.36664 6.33601 3.42789 6.39766L4.58814 7.57482C4.70774 7.69503 4.901 7.69756 5.02369 7.58054C5.93019 6.75653 7.10931 6.29996 8.33223 6.29945ZM10.6667 9.02304C10.6685 9.1085 10.6342 9.19088 10.5719 9.25075L8.5571 11.2419C8.49804 11.3004 8.41752 11.3333 8.3335 11.3333C8.24948 11.3333 8.16896 11.3004 8.1099 11.2419L6.0948 9.25075C6.03255 9.19084 5.99831 9.10843 6.00015 9.02297C6.002 8.93752 6.03977 8.8566 6.10455 8.79932C7.39126 7.73356 9.27575 7.73356 10.5625 8.79932C10.6272 8.85664 10.6649 8.93759 10.6667 9.02304Z" fill="white"/>
</svg>
